<svg xmlns="http://www.w3.org/2000/svg" xmlns:xlink="http://www.w3.org/1999/xlink" viewBox="0 0 132.37 39.49"><defs><style>.cls-1{fill:#eb2127;}.cls-2{fill:#7d7c7c;}.cls-3{fill:#5acaeb;}.cls-4{fill:#98459a;}.cls-5{fill:#416cb4;}.cls-6{fill:url(#linear-gradient);}.cls-7{fill:#8cc540;}</style><linearGradient id="linear-gradient" x1="11.29" y1="19.91" x2="40.9" y2="19.91" gradientUnits="userSpaceOnUse"><stop offset="0" stop-color="#f15722"/><stop offset="1" stop-color="#ffcb05"/></linearGradient></defs><g id="Layer_2" data-name="Layer 2"><g id="Layer_9" data-name="Layer 9"><path class="cls-1" d="M56.07,25.58l4.92,0a3.77,3.77,0,0,0,.54,1.86,2.69,2.69,0,0,0,2.21,1.14,2.48,2.48,0,0,0,1.73-.41A1.58,1.58,0,0,0,66.14,27a1.54,1.54,0,0,0-.5-1.19,6.6,6.6,0,0,0-2.58-1.12,11.27,11.27,0,0,1-4.72-2.31,4.08,4.08,0,0,1-1.27-3.3A4.39,4.39,0,0,1,58,16.67,5,5,0,0,1,60.3,15a10.49,10.49,0,0,1,4.14-.41,8.33,8.33,0,0,1,4.8,1.47A5.12,5.12,0,0,1,71,20H66.15a2.68,2.68,0,0,0-.72-1.69,2.61,2.61,0,0,0-1.68-.61,2.15,2.15,0,0,0-1.38.3,1.23,1.23,0,0,0-.51.9,1,1,0,0,0,.34.74,4.36,4.36,0,0,0,1.69.72,21.47,21.47,0,0,1,4.75,1.75,5,5,0,0,1,2,2,4.64,4.64,0,0,1,.52,2.51,5.31,5.31,0,0,1-1.05,2.9,5.61,5.61,0,0,1-2.6,1.91,10,10,0,0,1-4.06.46q-4.24-.24-5.79-2A6.39,6.39,0,0,1,56.07,25.58Z"/><path class="cls-1" d="M72.35,14.85H77V21a6.15,6.15,0,0,1,1.88-1.4,5.35,5.35,0,0,1,2.21-.42,3.9,3.9,0,0,1,3,1.15,5,5,0,0,1,1.09,3.53v7.68H80.48V24.89a2.43,2.43,0,0,0-.42-1.61,1.53,1.53,0,0,0-1.19-.47,1.66,1.66,0,0,0-1.36.64A3.68,3.68,0,0,0,77,25.74v5.8H72.35Z"/><path class="cls-1" d="M86.77,14.85H91.4V18H86.77Zm0,4.6H91.4V31.54H86.77Z"/><path class="cls-1" d="M91.69,19.45h4.83l2.34,7.66,2.44-7.66H106l-5.14,12.09H96.72Z"/><path class="cls-1" d="M106.17,14.85h4.64V18h-4.64Zm0,4.6h4.64V31.54h-4.64Z"/><path class="cls-1" d="M112.62,14.85h4.65V31.54h-4.65Z"/><path class="cls-1" d="M123.15,23.37l-4.43-.47a4.86,4.86,0,0,1,.72-1.83,3.92,3.92,0,0,1,1.36-1.15,5.64,5.64,0,0,1,1.75-.55,14.14,14.14,0,0,1,2.42-.19,18.89,18.89,0,0,1,3.35.23,4.26,4.26,0,0,1,2.1,1,3.42,3.42,0,0,1,.94,1.45,5.24,5.24,0,0,1,.34,1.8V29a6.64,6.64,0,0,0,.11,1.34,6,6,0,0,0,.47,1.23h-4.35a3.82,3.82,0,0,1-.34-.71,4.13,4.13,0,0,1-.16-.77,6.14,6.14,0,0,1-1.81,1.26,7.65,7.65,0,0,1-2.86.5,4.8,4.8,0,0,1-3.29-1,3.41,3.41,0,0,1-.31-4.73,5.35,5.35,0,0,1,3-1.32c1.74-.35,2.87-.6,3.39-.74a15.8,15.8,0,0,0,1.64-.55,1.62,1.62,0,0,0-.36-1.2,1.8,1.8,0,0,0-1.24-.34,3.15,3.15,0,0,0-1.71.37A2,2,0,0,0,123.15,23.37Zm4,2.43c-.64.23-1.31.43-2,.61a4.45,4.45,0,0,0-1.78.74A1.15,1.15,0,0,0,123,28a1.18,1.18,0,0,0,.38.9,1.61,1.61,0,0,0,1.12.34,2.86,2.86,0,0,0,1.44-.37,2.28,2.28,0,0,0,1-.92,3.15,3.15,0,0,0,.28-1.41Z"/><path class="cls-2" d="M56.12,35.18h.93v4.24h-.93Z"/><path class="cls-2" d="M58.26,35.18h.86l2,2.61V35.18H62v4.24h-.79l-2-2.69v2.69h-.92Z"/><path class="cls-2" d="M63.19,35.18H64l2,2.61V35.18H67v4.24h-.8L64.1,36.73v2.69h-.91Z"/><path class="cls-2" d="M67.93,37.31h0a2.19,2.19,0,0,1,2.25-2.19,2.17,2.17,0,0,1,2.24,2.18h0a2.18,2.18,0,0,1-2.25,2.19A2.16,2.16,0,0,1,67.93,37.31Zm3.52,0h0A1.29,1.29,0,0,0,70.17,36a1.26,1.26,0,0,0-1.27,1.32h0a1.28,1.28,0,0,0,1.28,1.33A1.26,1.26,0,0,0,71.45,37.31Z"/><path class="cls-2" d="M72.77,35.18h1l1.1,3,1.11-3h1L75.3,39.45h-.82Z"/><path class="cls-2" d="M78.67,35.15h.85l1.82,4.27h-1l-.38-1H78.19l-.39,1h-1Zm1,2.5-.56-1.38-.56,1.38Z"/><path class="cls-2" d="M82.58,36H81.3v-.86h3.5V36H83.51v3.38h-.93Z"/><path class="cls-2" d="M85.67,35.18h3.19V36H86.59v.86h2v.83h-2v.89h2.3v.83H85.67Z"/><path class="cls-2" d="M91.81,38.45h1v1h-1Z"/><path class="cls-2" d="M95.72,35.18h.94v4.24h-.94Z"/><path class="cls-2" d="M97.86,35.18h.86l2,2.61V35.18h.92v4.24h-.8l-2-2.69v2.69h-.92Z"/><path class="cls-2" d="M102.79,35.18H106V36h-2.3v.9h2v.85h-2v1.64h-.93Z"/><path class="cls-2" d="M106.91,35.18h.93v3.39H110v.85h-3Z"/><path class="cls-2" d="M110.62,37.6V35.18h.93v2.4c0,.69.34,1,.91,1s.91-.34.91-1V35.18h.94v2.39a1.71,1.71,0,0,1-1.86,1.91A1.67,1.67,0,0,1,110.62,37.6Z"/><path class="cls-2" d="M115.41,35.18h3.19V36h-2.27v.86h2v.83h-2v.89h2.3v.83h-3.22Z"/><path class="cls-2" d="M119.61,35.18h.86l2,2.61V35.18h.92v4.24h-.79l-2-2.69v2.69h-.92Z"/><path class="cls-2" d="M124.35,37.31h0a2.16,2.16,0,0,1,2.21-2.19,2.19,2.19,0,0,1,1.67.66l-.6.68a1.54,1.54,0,0,0-1.08-.48,1.26,1.26,0,0,0-1.23,1.32h0a1.26,1.26,0,0,0,1.23,1.33,1.53,1.53,0,0,0,1.11-.49l.6.59a2.16,2.16,0,0,1-1.74.76A2.14,2.14,0,0,1,124.35,37.31Z"/><path class="cls-2" d="M129.15,35.18h3.19V36h-2.26v.86h2v.83h-2v.89h2.29v.83h-3.22Z"/><circle class="cls-1" cx="43.3" cy="3.3" r="3.3"/><path class="cls-3" d="M43,16.31a8.46,8.46,0,0,1,7,3.5,10.2,10.2,0,0,1,1.83,3.86A11,11,0,0,1,52,28c-.07.36-.16.72-.24,1.07s-.22.7-.34,1a10.7,10.7,0,0,1-1,1.93,10.26,10.26,0,0,1-3,3,9.24,9.24,0,0,1-3.9,1.41,7.34,7.34,0,0,1-3.88-.55v-.26a9.1,9.1,0,0,0,3.44-.51,9.28,9.28,0,0,0,3-1.69,9.69,9.69,0,0,0,3.37-5.9,10.25,10.25,0,0,0,0-3.45,9.68,9.68,0,0,0-1.2-3.24A9.47,9.47,0,0,0,46,18.25a9.67,9.67,0,0,0-3-1.69Z"/><path class="cls-4" d="M16,12.49a11.68,11.68,0,0,1,1.77-5.1,13.31,13.31,0,0,1,4-4,13.8,13.8,0,0,1,5.5-2,14.73,14.73,0,0,1,1.48-.11l1.49,0,1.48.21,1.45.36c.47.15.93.35,1.4.52s.9.44,1.34.66.83.53,1.25.8a11.42,11.42,0,0,1,1.16.92,14.1,14.1,0,0,1,3.48,4.65A13.33,13.33,0,0,1,43,15v.7c0,.23,0,.46-.07.69a10.09,10.09,0,0,1-.21,1.34,13.05,13.05,0,0,1-.37,1.3,10.41,10.41,0,0,1-.54,1.23l-.25-.06a14,14,0,0,0,.27-2.49c0-.42,0-.84,0-1.26,0-.2,0-.41,0-.62l-.1-.62A13.87,13.87,0,0,0,40,10.51,13.26,13.26,0,0,0,32.4,4.4c-.4-.1-.8-.22-1.2-.31L30,3.89l-1.25-.07c-.41,0-.83,0-1.24.05a13.08,13.08,0,0,0-4.77,1.37A13.72,13.72,0,0,0,18.79,8.3a14,14,0,0,0-2.57,4.28Z"/><path class="cls-5" d="M9.27,16.17a1.94,1.94,0,0,1-1.66-1.71A3,3,0,0,1,10.37,11a2.08,2.08,0,0,1,2,1l-.05.18a2.67,2.67,0,0,0-1.51.09,2.68,2.68,0,0,0-1.17.94A3.09,3.09,0,0,0,9.1,14.6a2.35,2.35,0,0,0,0,.75,1.89,1.89,0,0,0,.28.71Z"/><path class="cls-6" d="M31.63,38.79a21.34,21.34,0,0,1-4.78-.56h-.06l0-.19h.07a14.32,14.32,0,0,0,2.55.21c2.37,0,5.34-.54,6-3.13,0,0,.92-2.6-3.44-6.14s-7.82-5.86-8-6c-1.49-1-2.84-2-4-3-5.69-4.3-8.64-8.28-8.76-11.8A6.36,6.36,0,0,1,13.68,3.1C15.26,1.73,17.57,1,20.56,1a22.27,22.27,0,0,1,4.77.55l.06,0,0,.18h-.06a16.34,16.34,0,0,0-2.56-.2c-2.37,0-5.34.54-6,3.13,0,0-.92,2.59,3.44,6.13s7.93,5.94,8,6c1.48,1,2.83,2,4,3,5.69,4.3,8.64,8.27,8.75,11.8a6.33,6.33,0,0,1-2.39,5.09c-1.57,1.36-3.89,2.06-6.87,2.06Z"/><path class="cls-7" d="M34.48,31.44a9.87,9.87,0,0,1-2,3.14,12.71,12.71,0,0,1-3,2.37,14.33,14.33,0,0,1-3.63,1.44,11.06,11.06,0,0,1-2,.33L22,38.86c-2.37.2-4.75.28-7.13.38-.59,0-1.18.06-1.78.06l-1.81,0A11,11,0,0,1,7,38.45a10.85,10.85,0,0,1-3.61-2.58A11.94,11.94,0,0,1,1,32.24a13.68,13.68,0,0,1-.95-4.08A14.17,14.17,0,0,1,0,26.1,11.8,11.8,0,0,1,.36,24,12,12,0,0,1,2,20.26a11.86,11.86,0,0,1,2.76-2.93,10.4,10.4,0,0,1,3.55-1.67,11.29,11.29,0,0,1,1.89-.26,8.76,8.76,0,0,1,1.86.16v.26a9.31,9.31,0,0,0-3.42.68,9.87,9.87,0,0,0-2.94,1.87,10.61,10.61,0,0,0-3.28,6,11.67,11.67,0,0,0-.08,3.49,11.48,11.48,0,0,0,.92,3.36A9.37,9.37,0,0,0,8,36.1a8.59,8.59,0,0,0,3.36.72H14.9l7.13,0h1.78a12.79,12.79,0,0,0,1.75-.16,13.63,13.63,0,0,0,3.36-1,11.77,11.77,0,0,0,5.35-4.41Z"/></g></g></svg>